<mxfile host="65bd71144e">
    <diagram id="LZK3UUPGuIxE91FEqhbS" name="Page-1">
        <mxGraphModel dx="1015" dy="428" grid="1" gridSize="10" guides="1" tooltips="1" connect="1" arrows="1" fold="1" page="1" pageScale="1" pageWidth="850" pageHeight="1100" math="0" shadow="0">
            <root>
                <mxCell id="0"/>
                <mxCell id="1" parent="0"/>
                <mxCell id="2" value="AUTHENTICATION" style="rounded=1;whiteSpace=wrap;html=1;fillColor=#a20025;fontColor=#ffffff;strokeColor=#6F0000;" vertex="1" parent="1">
                    <mxGeometry x="190" y="90" width="120" height="60" as="geometry"/>
                </mxCell>
                <mxCell id="3" value="" style="endArrow=classic;html=1;rounded=0;exitX=0;exitY=0.5;exitDx=0;exitDy=0;fillColor=#fa6800;strokeColor=#C73500;" edge="1" parent="1">
                    <mxGeometry relative="1" as="geometry">
                        <mxPoint x="180" y="120" as="sourcePoint"/>
                        <mxPoint x="80" y="410" as="targetPoint"/>
                        <Array as="points">
                            <mxPoint x="80" y="120"/>
                        </Array>
                    </mxGeometry>
                </mxCell>
                <mxCell id="4" value="" style="endArrow=classic;html=1;rounded=0;fillColor=#fad7ac;strokeColor=#b46504;" edge="1" parent="1">
                    <mxGeometry relative="1" as="geometry">
                        <mxPoint x="80" y="230" as="sourcePoint"/>
                        <mxPoint x="160" y="230" as="targetPoint"/>
                    </mxGeometry>
                </mxCell>
                <mxCell id="5" value="" style="endArrow=classic;html=1;rounded=0;fillColor=#b1ddf0;strokeColor=#10739e;" edge="1" parent="1">
                    <mxGeometry relative="1" as="geometry">
                        <mxPoint x="80" y="300" as="sourcePoint"/>
                        <mxPoint x="160" y="300" as="targetPoint"/>
                        <Array as="points"/>
                    </mxGeometry>
                </mxCell>
                <mxCell id="6" value="" style="endArrow=classic;html=1;rounded=0;fillColor=#b1ddf0;strokeColor=#10739e;" edge="1" parent="1">
                    <mxGeometry relative="1" as="geometry">
                        <mxPoint x="80" y="360" as="sourcePoint"/>
                        <mxPoint x="160" y="360" as="targetPoint"/>
                        <Array as="points"/>
                    </mxGeometry>
                </mxCell>
                <mxCell id="7" value="SYMMETRICAL KEY&amp;nbsp; ENCRYPTION" style="text;html=1;whiteSpace=wrap;strokeColor=#666666;fillColor=#f5f5f5;align=center;verticalAlign=middle;rounded=0;fontColor=#333333;" vertex="1" parent="1">
                    <mxGeometry x="170" y="220" width="220" height="30" as="geometry"/>
                </mxCell>
                <mxCell id="8" value="ASYMMETRICAL KEY&amp;nbsp; ENCRYPTION" style="text;html=1;whiteSpace=wrap;strokeColor=#d6b656;fillColor=#fff2cc;align=center;verticalAlign=middle;rounded=0;" vertex="1" parent="1">
                    <mxGeometry x="169" y="290" width="220" height="30" as="geometry"/>
                </mxCell>
                <mxCell id="9" value="CERTIFICATES" style="text;html=1;whiteSpace=wrap;strokeColor=#b85450;fillColor=#f8cecc;align=center;verticalAlign=middle;rounded=0;" vertex="1" parent="1">
                    <mxGeometry x="110" y="350" width="220" height="30" as="geometry"/>
                </mxCell>
                <mxCell id="10" value="AUTHORISATION" style="rounded=1;whiteSpace=wrap;html=1;fillColor=#d80073;fontColor=#ffffff;strokeColor=#A50040;" vertex="1" parent="1">
                    <mxGeometry x="550" y="90" width="120" height="60" as="geometry"/>
                </mxCell>
                <mxCell id="11" value="" style="endArrow=classic;html=1;rounded=0;exitX=0;exitY=0.5;exitDx=0;exitDy=0;fillColor=#60a917;strokeColor=#2D7600;" edge="1" parent="1">
                    <mxGeometry relative="1" as="geometry">
                        <mxPoint x="550" y="120" as="sourcePoint"/>
                        <mxPoint x="450" y="410" as="targetPoint"/>
                        <Array as="points">
                            <mxPoint x="450" y="120"/>
                        </Array>
                    </mxGeometry>
                </mxCell>
                <mxCell id="12" value="" style="endArrow=classic;html=1;rounded=0;fillColor=#d80073;strokeColor=#A50040;" edge="1" parent="1">
                    <mxGeometry relative="1" as="geometry">
                        <mxPoint x="450" y="200" as="sourcePoint"/>
                        <mxPoint x="530" y="200" as="targetPoint"/>
                    </mxGeometry>
                </mxCell>
                <mxCell id="13" value="" style="endArrow=classic;html=1;rounded=0;fillColor=#fa6800;strokeColor=#C73500;" edge="1" parent="1">
                    <mxGeometry relative="1" as="geometry">
                        <mxPoint x="450" y="270" as="sourcePoint"/>
                        <mxPoint x="530" y="270" as="targetPoint"/>
                    </mxGeometry>
                </mxCell>
                <mxCell id="14" value="" style="endArrow=classic;html=1;rounded=0;fillColor=#6d8764;strokeColor=#3A5431;" edge="1" parent="1">
                    <mxGeometry relative="1" as="geometry">
                        <mxPoint x="450" y="340" as="sourcePoint"/>
                        <mxPoint x="530" y="340" as="targetPoint"/>
                    </mxGeometry>
                </mxCell>
                <mxCell id="15" value="" style="endArrow=classic;html=1;rounded=0;fillColor=#f0a30a;strokeColor=#BD7000;" edge="1" parent="1">
                    <mxGeometry relative="1" as="geometry">
                        <mxPoint x="450" y="390" as="sourcePoint"/>
                        <mxPoint x="530" y="390" as="targetPoint"/>
                        <Array as="points"/>
                    </mxGeometry>
                </mxCell>
                <mxCell id="16" value="ABAC" style="text;html=1;whiteSpace=wrap;strokeColor=#6c8ebf;fillColor=#dae8fc;align=center;verticalAlign=middle;rounded=0;gradientColor=#7ea6e0;" vertex="1" parent="1">
                    <mxGeometry x="540" y="180" width="60" height="30" as="geometry"/>
                </mxCell>
                <mxCell id="17" value="RBAC" style="text;html=1;whiteSpace=wrap;strokeColor=#d6b656;fillColor=#fff2cc;align=center;verticalAlign=middle;rounded=0;gradientColor=#ffd966;" vertex="1" parent="1">
                    <mxGeometry x="530" y="250" width="60" height="30" as="geometry"/>
                </mxCell>
                <mxCell id="18" value="NODE" style="text;html=1;whiteSpace=wrap;strokeColor=#b85450;fillColor=#f8cecc;align=center;verticalAlign=middle;rounded=0;gradientColor=#ea6b66;" vertex="1" parent="1">
                    <mxGeometry x="540" y="330" width="60" height="30" as="geometry"/>
                </mxCell>
                <mxCell id="19" value="WEBHOOK" style="text;html=1;whiteSpace=wrap;strokeColor=#996185;fillColor=#e6d0de;align=center;verticalAlign=middle;rounded=0;gradientColor=#d5739d;" vertex="1" parent="1">
                    <mxGeometry x="540" y="380" width="60" height="30" as="geometry"/>
                </mxCell>
                <mxCell id="20" value="WHO ARE YOU" style="ellipse;shape=cloud;whiteSpace=wrap;html=1;fillColor=#008a00;fontColor=#ffffff;strokeColor=#005700;" vertex="1" parent="1">
                    <mxGeometry x="130" y="150" width="220" height="60" as="geometry"/>
                </mxCell>
                <mxCell id="21" value="WHAT YOU CAN DO" style="ellipse;shape=cloud;whiteSpace=wrap;html=1;fillColor=#1ba1e2;fontColor=#ffffff;strokeColor=#006EAF;" vertex="1" parent="1">
                    <mxGeometry x="620" y="140" width="220" height="60" as="geometry"/>
                </mxCell>
            </root>
        </mxGraphModel>
    </diagram>
</mxfile>
